<svg xmlns="http://www.w3.org/2000/svg" version="1.1" xmlns:xlink="http://www.w3.org/1999/xlink" width="1500" height="507" viewBox="0 0 1500 507"><svg xml:space="preserve" width="1500" height="507" data-version="2" data-id="lg_vibK9xtrwo2bUodum0" viewBox="0 0 568 507" x="0" y="0"><rect width="100%" height="100%" fill="transparent"></rect><path fill="#009b7d" d="m55.48 423.182 3.19-17.6h6.49q2.09 0 3.58-.5 1.48-.49 1.92-2.8l5.28-30.25h-8.58l3.19-17.6h29.48l-8.91 50.6q-1.54 8.91-6.54 13.53-5.01 4.62-12.82 4.62Zm10.78-63.8-46.53-4.95h47.41Zm-1.98 10.56-46.64-4.95h47.41Zm6.82 10.56-46.64-4.95h47.52Zm-1.87 10.56-46.64-4.95h47.52Zm-1.87 10.56-46.64-4.95h47.52Zm-13.31 10.56-46.64-4.95h47.52Zm-1.87 10.67-46.64-4.95h47.52Z"></path><rect width="94.49" height="68.75" x="-47.24" y="-34.38" fill="none" rx="0" ry="0" transform="translate(53.28 389.3)"></rect><path fill="#009b7d" d="M148.1 424.832q-8.8 0-14.08-1.71-5.28-1.7-7.59-5.66-2.31-3.96-2.31-10.45 0-2.86.39-6.38.38-3.52 1.15-7.59l6.82-38.61h20.9l-9.13 51.59h7.48q3.52 0 5.28-.88 1.76-.88 2.53-4.95l8.14-45.76h20.9l-6.82 38.61q-1.54 8.91-3.79 15.01-2.26 6.11-5.94 9.79-3.69 3.69-9.52 5.34t-14.41 1.65m-19.91-65.45-46.53-4.95h47.41Zm-1.87 10.56-46.53-4.95h47.41Zm-1.87 10.56-46.64-4.95h47.52Zm-1.87 10.56-46.53-4.95h47.41Zm-1.54 10.56-46.53-4.95h47.08q-.11 1.32-.27 2.53-.17 1.21-.28 2.42m.11 10.56-46.53-4.95h46.2q0 2.64.33 4.95m5.06 10.67-46.53-4.95h43.01q1.43 3.08 3.52 4.95"></path><rect width="114.07" height="70.4" x="-57.03" y="-35.2" fill="none" rx="0" ry="0" transform="translate(132.04 390.13)"></rect><path fill="#009b7d" d="m210.25 423.182 12.1-68.75h19.69l11.22 24.42q.33.77.33 2.2 0 .77-.05 1.59-.06.83-.17 1.49h.88l5.28-29.7h20.9l-12.1 68.75h-19.69l-11.22-24.42q-.11-.44-.27-1.05-.17-.6-.17-1.37 0-.66.06-1.43.05-.77.16-1.43h-.88l-5.17 29.7Zm7.81-63.8-46.53-4.95h47.41Zm-1.76 10.56-46.64-4.95h47.41Zm-1.87 10.56-46.64-4.95h47.52Zm-1.87 10.56-46.64-4.95h47.52Zm-1.87 10.56-46.64-4.95h47.52Zm-1.87 10.56-46.64-4.95h47.52Zm-1.87 10.67-46.64-4.95h47.52Z"></path><rect width="120.12" height="68.75" x="-60.06" y="-34.38" fill="none" rx="0" ry="0" transform="translate(220.87 389.3)"></rect><path fill="#009b7d" d="m303.86 423.182 12.1-68.75h29.26q14.41 0 20.3 5.11 5.88 5.12 5.88 16.12 0 5.72-1.32 13.2-2.09 11.88-6.1 19.47-4.02 7.59-11.33 11.22-7.32 3.63-19.53 3.63Zm7.81-63.8-46.53-4.95h47.41Zm-1.76 10.56-46.64-4.95h47.41Zm17.93 35.64h8.69q3.63 0 6-.88 2.36-.88 3.13-4.95l3.85-21.89q.11-.55.11-.94v-.82q0-2.86-2.03-3.47-2.04-.6-5.23-.6h-8.69Zm-19.8-25.08-46.64-4.95h47.52Zm-1.87 10.56-46.64-4.95h47.52Zm-1.87 10.56-46.64-4.95h47.52Zm-1.87 10.56-46.64-4.95h47.52Zm-1.87 10.67-46.64-4.95h47.52Z"></path><rect width="117.48" height="68.75" x="-58.74" y="-34.38" fill="none" rx="0" ry="0" transform="translate(313.16 389.3)"></rect><path fill="#009b7d" d="m396.37 423.182 12.1-68.75h42.9l-5.83 17.6h-19.36l-1.54 9.24h17.82l-2.97 16.39h-17.82l-4.4 25.52Zm7.81-63.8-46.53-4.95h47.41Zm-1.76 10.56-46.64-4.95h47.41Zm-1.87 10.56-46.64-4.95h47.52Zm-1.87 10.56-46.64-4.95h47.52Zm-1.87 10.56-46.64-4.95h47.52Zm-1.87 10.56-46.64-4.95h47.52Zm-1.87 10.67-46.64-4.95h47.52Z"></path><rect width="104.94" height="68.75" x="-52.47" y="-34.38" fill="none" rx="0" ry="0" transform="translate(399.4 389.3)"></rect><path fill="#009b7d" d="M495.37 424.832q-6.49 0-12.7-.72-6.22-.71-12.05-2.14l6.16-18.15q4.18 1.1 9.02 1.81 4.84.72 9.13.72 3.52 0 6.16-.17 2.64-.16 5.06-.49l.88-5.5-9.13-.88q-10.78-1.1-14.96-4.9-4.18-3.79-4.18-10.39 0-2.97.66-6.6 1.76-9.35 5.12-14.74 3.35-5.39 9.62-7.65 6.27-2.25 16.61-2.25 6.05 0 11.88.66 5.83.66 11.22 2.09l-5.72 17.6q-4.29-.77-8.14-1.21-3.85-.44-8.58-.44-2.53 0-4.29.11-1.76.11-4.29.44l-.88 5.39 7.37.77q7.92.77 12.43 3.02 4.51 2.26 6.38 5.61 1.87 3.36 1.87 7.76 0 1.32-.16 2.69-.17 1.38-.39 2.92-1.54 8.91-4.95 13.97-3.41 5.06-8.03 7.31-4.62 2.26-10.06 2.81-5.45.55-11.06.55m-12.65-65.89-42.46-4.51h47.3q-1.43.88-2.58 2.03-1.16 1.16-2.26 2.48m-5.06 10.89-45.65-4.84h47.3Zm-2.09 10.67-46.64-4.95h47.41q-.11.33-.16.66-.06.33-.06.66-.11.77-.27 1.65-.17.88-.28 1.98m.88 10.56-46.53-4.95h45.65q.11 1.43.28 2.58.16 1.16.6 2.37m14.52 10.56-58.19-4.95h47.41q3.63 3.52 10.78 4.95m-20.57 10.45-39.49-4.84h41.14Zm-3.52 10.67-37.84-4.84h39.49Z"></path><rect width="104.94" height="72.05" x="-52.47" y="-36.02" fill="none" rx="0" ry="0" transform="translate(481.9 389.3)"></rect><path fill="#009b7d" d="M120.23 497.882v2.56H116q-1.19 0-1.87-.05-.68-.04-1.7-.35-1.01-.3-1.71-.91-1.07-.99-1.39-2.36-.32-1.38-.32-3.24v-13.39h2.72v13.34q0 1.68.38 2.63.76 1.77 3.16 1.77Z"></path><rect width="11.22" height="20.3" x="-5.61" y="-10.15" fill="none" rx="0" ry="0" transform="translate(115.12 490.8)"></rect><path fill="#009b7d" d="M121.62 480.142h2.56l-.29 6.38h-1.98Z"></path><rect width="2.56" height="6.38" x="-1.28" y="-3.19" fill="none" rx="0" ry="0" transform="translate(123.4 483.83)"></rect><path fill="#009b7d" d="M134.33 492.263v2.61q-1.11-.84-2.7-.84-1.36 0-2.12.53-.75.54-.75 1.53 0 1.91 2.84 1.91h3.83v-5.54q0-3.51-3.42-3.51h-4.64v-2.43h4.78q2.81 0 4.32 1.39 1.51 1.39 1.51 4v8.53h-6.47q-2.46 0-3.91-1.11-1.45-1.1-1.45-3.22 0-2.11 1.53-3.21 1.54-1.11 3.86-1.11 1.31 0 2.79.47"></path><rect width="11.83" height="13.92" x="-5.92" y="-6.96" fill="none" rx="0" ry="0" transform="translate(132.56 493.98)"></rect><path fill="#009b7d" d="M145.81 500.752q-2.49-2.34-3.67-5.19-1.17-2.84-2.33-9.04h2.66q1.14 6.98 3.34 10.58 2.2-3.6 3.33-10.58h2.67q-1.16 6.2-2.33 9.04-1.18 2.85-3.67 5.19"></path><rect width="12" height="14.23" x="-6" y="-7.12" fill="none" rx="0" ry="0" transform="translate(146.31 494.14)"></rect><path fill="#009b7d" d="M160.74 486.233q4.93.2 4.93 4.08 0 4.85-6.35 4.85h-1.19v-2.24h1.4q1.94 0 2.69-.59.76-.59.76-1.99 0-.9-.67-1.35-.67-.44-1.71-.44-2.06 0-3.23 1.45-1.18 1.45-1.18 3.48 0 2.14 1.26 3.48 1.26 1.33 3.29 1.33 1.83 0 2.99-.9l1.74 1.71q-2 1.63-4.73 1.63-3.3 0-5.27-1.95-1.98-1.94-1.98-5.01 0-3.43 1.95-5.54 1.94-2.12 5.3-2"></path><rect width="12.18" height="14.54" x="-6.09" y="-7.27" fill="none" rx="0" ry="0" transform="translate(160.08 493.96)"></rect><path fill="#009b7d" d="M168.37 486.523h5.02q3.22 0 4.61.95 1.25.84 1.58 2.02.33 1.17.33 3.09v7.86h-2.55v-7.83q0-.53-.03-.89t-.2-.93q-.17-.56-.49-.93-.32-.36-.93-.63-.61-.28-1.48-.28h-3.31v11.49h-2.55Z"></path><rect width="11.54" height="13.92" x="-5.77" y="-6.96" fill="none" rx="0" ry="0" transform="translate(174.64 493.98)"></rect><path fill="#009b7d" d="M186.82 500.442h-2.56v-11.49h-2.37l1.16-2.43h3.77Zm-2.67-16.82q-.38-.5-.38-1.08 0-.58.38-1.06.37-.47 1.16-.47.78 0 1.16.47.37.48.37 1.06 0 .58-.37 1.06-.38.48-1.16.48-.79 0-1.16-.46"></path><rect width="4.95" height="19.43" x="-2.48" y="-9.71" fill="none" rx="0" ry="0" transform="translate(184.87 491.23)"></rect><path fill="#009b7d" d="M189.92 500.443v-7.92q0-3.34 1.25-4.61.6-.64 1.47-.96.87-.32 1.53-.38.65-.05 1.78-.05h2.55v2.43h-3.07q-.58 0-.9.03-.32.03-.75.2-.44.18-.76.55-.55.7-.55 2.79v7.92Z"></path><rect width="8.58" height="13.92" x="-4.29" y="-6.96" fill="none" rx="0" ry="0" transform="translate(194.71 493.98)"></rect><path fill="#009b7d" d="M217.32 480.142h2.61v20.3h-6.81q-3.16 0-5.13-2.02-1.98-2.02-1.98-5.09 0-3.02 2.05-5.06 2.04-2.04 4.86-2.04 1.79 0 3.36.87v2.61q-1.45-1.05-3.36-1.05-1.74 0-2.95 1.29-1.2 1.29-1.2 3.38 0 2.12 1.14 3.39 1.15 1.28 3.21 1.28h4.2Z"></path><rect width="13.92" height="20.3" x="-6.96" y="-10.15" fill="none" rx="0" ry="0" transform="translate(213.47 490.8)"></rect><path fill="#009b7d" d="M234.61 500.443h-5.02q-3.22 0-4.61-.96-1.25-.84-1.58-2.02-.33-1.17-.33-3.09v-7.85h2.55v7.83q0 .52.03.88t.2.93q.17.56.49.93.32.36.93.63.61.28 1.48.28h3.31v-11.48h2.55Z"></path><rect width="11.54" height="13.92" x="-5.77" y="-6.96" fill="none" rx="0" ry="0" transform="translate(229.34 493.98)"></rect><path fill="#009b7d" d="M256.5 500.732q-2.14-1.66-2.87-3.34-.72-1.68-1.07-4.96h-.29q-.35 3.28-1.07 4.96-.73 1.68-2.88 3.34-2-.99-3.17-3.57-1.18-2.58-1.38-6.38l-.2-4.26h2.58l.23 4.14q.26 4.76 1.89 6.9.43-.49.81-1.1.38-.61.64-1.35.26-.74.45-1.3.18-.57.34-1.45.16-.89.22-1.29.06-.41.16-1.31.1-.9.13-1.01h2.79q.02.11.13 1.01.1.9.16 1.31.05.4.21 1.29.16.88.35 1.45.19.56.45 1.3t.64 1.35q.38.61.81 1.1 1.62-2.14 1.89-6.9l.23-4.14h2.58l-.2 4.26q-.21 3.8-1.38 6.38-1.18 2.58-3.18 3.57"></path><rect width="17.69" height="14.21" x="-8.85" y="-7.11" fill="none" rx="0" ry="0" transform="translate(252.91 494.13)"></rect><path fill="#009b7d" d="M270.48 486.233q4.93.2 4.93 4.08 0 4.85-6.35 4.85h-1.19v-2.24h1.39q1.95 0 2.7-.59.75-.59.75-1.99 0-.9-.66-1.35-.67-.44-1.71-.44-2.06 0-3.24 1.45-1.17 1.45-1.17 3.48 0 2.14 1.26 3.48 1.26 1.33 3.29 1.33 1.83 0 2.99-.9l1.74 1.71q-2 1.63-4.73 1.63-3.31 0-5.28-1.95-1.97-1.94-1.97-5.01 0-3.43 1.94-5.54 1.95-2.12 5.31-2"></path><rect width="12.18" height="14.54" x="-6.09" y="-7.27" fill="none" rx="0" ry="0" transform="translate(269.82 493.96)"></rect><path fill="#009b7d" d="M277.96 480.142h2.61v13.34q0 2.29 1.18 3.55 1.17 1.26 3.23 1.26 2.15 0 3.36-1.23 1.22-1.24 1.22-3.58 0-2.24-1.32-3.53-1.32-1.29-3.46-1.29-1.83 0-3.16 1.05v-2.61q1.59-.87 3.45-.87 3.07 0 5.09 1.98 2.01 1.99 2.01 5.27 0 3.45-2.1 5.35-2.1 1.9-5.29 1.9-3.05 0-4.93-1.98-1.89-1.97-1.89-5.27Z"></path><rect width="14.21" height="20.59" x="-7.11" y="-10.29" fill="none" rx="0" ry="0" transform="translate(285.56 490.94)"></rect><path fill="#009b7d" d="m310.79 497.393 1.74 1.71q-2 1.63-4.58 1.63-3.22 0-5.16-2.08-1.95-2.07-1.95-5.17 0-3.05 2.05-5.15 2.04-2.1 5.06-2.1 2.58 0 4.58 1.62l-1.71 1.74q-1.22-.93-2.87-.93-2 0-3.18 1.32-1.17 1.32-1.17 3.5 0 2.17 1.17 3.49 1.18 1.32 3.18 1.32 1.68 0 2.84-.9"></path><rect width="11.69" height="14.5" x="-5.84" y="-7.25" fill="none" rx="0" ry="0" transform="translate(307.19 493.98)"></rect><path fill="#009b7d" d="M316.24 488.343q2.03-2.11 5.08-2.11 1.48 0 2.77.56 1.29.57 2.26 1.55.97.99 1.52 2.31t.55 2.83q0 1.5-.53 2.82-.54 1.32-1.5 2.31-.95.98-2.26 1.55-1.3.57-2.81.57-1.54 0-2.83-.57t-2.25-1.55q-.95-.99-1.49-2.31t-.54-2.82q0-3.08 2.03-5.14m5.08.32q-2.03 0-3.27 1.34-1.23 1.33-1.23 3.48 0 2.14 1.23 3.48 1.24 1.33 3.27 1.33 2.06 0 3.27-1.35 1.22-1.35 1.22-3.46 0-2.12-1.22-3.47-1.21-1.35-3.27-1.35"></path><rect width="14.21" height="14.5" x="-7.11" y="-7.25" fill="none" rx="0" ry="0" transform="translate(321.81 493.98)"></rect><path fill="#009b7d" d="M331.26 486.523h12.79q2.06 0 3.28.78 1.25.78 1.64 2.03.39 1.25.39 2.99v8.12h-2.55v-8.12q0-2.27-1.36-2.99-.7-.38-2.82-.38h-1.19v11.49h-2.55v-11.49h-5.07v11.49h-2.56Z"></path><rect width="18.1" height="13.92" x="-9.05" y="-6.96" fill="none" rx="0" ry="0" transform="translate(340.81 493.98)"></rect><path fill="#009b7d" d="M352.64 486.523h12.79q2.06 0 3.27.78 1.25.78 1.64 2.03.39 1.25.39 2.99v8.12h-2.55v-8.12q0-2.27-1.36-2.99-.7-.38-2.81-.38h-1.19v11.49h-2.56v-11.49h-5.07v11.49h-2.55Z"></path><rect width="18.09" height="13.92" x="-9.04" y="-6.96" fill="none" rx="0" ry="0" transform="translate(362.19 493.98)"></rect><path fill="#009b7d" d="M380.68 486.233q4.93.2 4.93 4.08 0 4.85-6.35 4.85h-1.19v-2.24h1.39q1.95 0 2.7-.59.75-.59.75-1.99 0-.9-.66-1.35-.67-.44-1.71-.44-2.06 0-3.24 1.45-1.17 1.45-1.17 3.48 0 2.14 1.26 3.48 1.26 1.33 3.29 1.33 1.83 0 2.99-.9l1.74 1.71q-2 1.63-4.73 1.63-3.31 0-5.28-1.95-1.97-1.94-1.97-5.01 0-3.43 1.94-5.54 1.95-2.12 5.31-2"></path><rect width="12.18" height="14.54" x="-6.09" y="-7.27" fill="none" rx="0" ry="0" transform="translate(380.02 493.96)"></rect><path fill="#009b7d" d="M388.31 486.523h5.01q3.22 0 4.62.95 1.24.84 1.58 2.02.33 1.17.33 3.09v7.86h-2.55v-7.83q0-.53-.03-.89t-.2-.93q-.18-.56-.5-.93-.32-.36-.93-.63-.6-.28-1.47-.28h-3.31v11.49h-2.55Z"></path><rect width="11.54" height="13.92" x="-5.77" y="-6.96" fill="none" rx="0" ry="0" transform="translate(394.58 493.98)"></rect><path fill="#009b7d" d="m412.49 497.393 1.74 1.71q-2 1.63-4.58 1.63-3.22 0-5.16-2.08-1.94-2.07-1.94-5.17 0-3.05 2.04-5.15 2.05-2.1 5.06-2.1 2.58 0 4.58 1.62l-1.71 1.74q-1.22-.93-2.87-.93-2 0-3.17 1.32-1.18 1.32-1.18 3.5 0 2.17 1.18 3.49 1.17 1.32 3.17 1.32 1.68 0 2.84-.9"></path><rect width="11.68" height="14.5" x="-5.84" y="-7.25" fill="none" rx="0" ry="0" transform="translate(408.89 493.98)"></rect><path fill="#009b7d" d="M423.17 486.233q4.93.2 4.93 4.08 0 4.85-6.36 4.85h-1.18v-2.24h1.39q1.94 0 2.69-.59.76-.59.76-1.99 0-.9-.67-1.35-.67-.44-1.71-.44-2.06 0-3.23 1.45-1.18 1.45-1.18 3.48 0 2.14 1.26 3.48 1.27 1.33 3.3 1.33 1.82 0 2.98-.9l1.74 1.71q-2 1.63-4.72 1.63-3.31 0-5.28-1.95-1.97-1.94-1.97-5.01 0-3.43 1.94-5.54 1.94-2.12 5.31-2"></path><rect width="12.18" height="14.54" x="-6.09" y="-7.27" fill="none" rx="0" ry="0" transform="translate(422.51 493.96)"></rect><path fill="#009b7d" d="M440.83 500.442h-2.56v-11.49h-2.37l1.16-2.43h3.77Zm-2.67-16.82q-.38-.5-.38-1.08 0-.58.38-1.06.38-.47 1.16-.47.78 0 1.16.47.38.48.38 1.06 0 .58-.38 1.06-.38.48-1.16.48-.78 0-1.16-.46"></path><rect width="4.96" height="19.43" x="-2.48" y="-9.71" fill="none" rx="0" ry="0" transform="translate(438.88 491.23)"></rect><path fill="#009b7d" d="m453.88 497.393 1.74 1.71q-2 1.63-4.59 1.63-3.21 0-5.16-2.08-1.94-2.07-1.94-5.17 0-3.05 2.04-5.15 2.05-2.1 5.06-2.1 2.59 0 4.59 1.62l-1.71 1.74q-1.22-.93-2.88-.93-2 0-3.17 1.32-1.18 1.32-1.18 3.5 0 2.17 1.18 3.49 1.17 1.32 3.17 1.32 1.69 0 2.85-.9"></path><rect width="11.69" height="14.5" x="-5.84" y="-7.25" fill="none" rx="0" ry="0" transform="translate(450.27 493.98)"></rect><path fill="#009b7d" d="M461.5 500.442h-2.55v-11.49h-2.38l1.16-2.43h3.77Zm-2.66-16.82q-.38-.5-.38-1.08 0-.58.38-1.06.37-.47 1.16-.47.78 0 1.16.47.37.48.37 1.06 0 .58-.37 1.06-.38.48-1.16.48-.79 0-1.16-.46"></path><rect width="4.96" height="19.43" x="-2.48" y="-9.71" fill="none" rx="0" ry="0" transform="translate(459.55 491.23)"></rect><path fill="#009b7d" d="M360.77 5.248H169.097c-21.761 0-39.463 17.702-39.463 39.463v135.3a5.638 5.638 0 0 0 5.638 5.637h259.325a5.638 5.638 0 0 0 5.637-5.637V44.71c0-21.761-17.702-39.463-39.462-39.463m-42.045 94.936-78.925 50.737a5.581 5.581 0 0 1-5.761.214 5.649 5.649 0 0 1-2.932-4.95V44.71a5.649 5.649 0 0 1 8.682-4.735l78.925 50.737a5.615 5.615 0 0 1 .011 9.471m75.87 96.74H135.27a5.638 5.638 0 0 0-5.637 5.638v33.824c0 21.761 17.702 39.463 39.463 39.463H360.77c21.76 0 39.462-17.702 39.462-39.462V202.56a5.638 5.638 0 0 0-5.637-5.638m-33.825 56.375H169.096a5.638 5.638 0 0 1 0-11.275h69.803l-7.193-14.387a5.649 5.649 0 0 1 5.04-8.163h22.55a5.638 5.638 0 0 1 5.04 8.152l-7.194 14.398h103.629a5.638 5.638 0 0 1 0 11.275M9.95 259.283v-42.63h18.68v5.68H16.39v11.77h9.86v5.8h-9.86v13.63h14.15v5.75Z"></path><rect width="20.59" height="42.63" x="-10.29" y="-21.32" fill="none" rx="0" ry="0" transform="translate(20.75 238.47)"></rect><path fill="#009b7d" d="M46.72 259.862q-2.43 0-4.81-.61-2.38-.61-4.24-1.51-1.85-.9-2.78-1.83l3.07-5.51q.64.52 2.01 1.36 1.36.85 3.16 1.48 1.79.64 3.59.64 2.96 0 4.96-1.39t2-4.06q0-2.2-1.16-3.65-1.16-1.45-3.04-2.56-1.89-1.1-4.06-2.11-2.18-1.02-4.15-2.29-2.26-1.51-3.94-4.01-1.69-2.49-1.69-6.43 0-3.89 1.77-6.38 1.77-2.5 4.7-3.75 2.93-1.24 6.41-1.24 2.78 0 4.76.58 1.97.58 3.3 1.39 1.34.81 2.09 1.45l-3.07 5.28q-.99-1.05-2.96-1.95-1.97-.89-4.41-.89-2.84 0-4.52 1.3-1.69 1.31-1.69 3.86 0 2.26 1.51 3.85 1.51 1.6 3.86 2.9 2.35 1.31 4.84 2.64 2.5 1.34 4.41 3.14 1.57 1.39 2.67 3.48 1.1 2.08 1.1 4.69 0 3.95-1.83 6.67-1.82 2.73-4.9 4.09-3.07 1.37-6.96 1.37"></path><rect width="25.52" height="43.85" x="-12.76" y="-21.93" fill="none" rx="0" ry="0" transform="translate(48.15 238.44)"></rect><path fill="#009b7d" d="M73.75 259.283v-36.95h-10.9v-5.68h28.36v5.68H80.19v36.95Z"></path><rect width="28.36" height="42.63" x="-14.18" y="-21.32" fill="none" rx="0" ry="0" transform="translate(77.53 238.47)"></rect><path fill="#009b7d" d="M93.76 259.863q-1.74 0-2.96-1.19t-1.22-2.93q0-1.8 1.19-2.99 1.19-1.19 2.99-1.19 1.86 0 3.02 1.19t1.16 2.99q0 1.74-1.19 2.93-1.19 1.19-2.99 1.19"></path><rect width="8.36" height="8.3" x="-4.18" y="-4.15" fill="none" rx="0" ry="0" transform="translate(94.26 256.21)"></rect><path fill="#009b7d" d="m447.24 256.792 12.1-15.14q.98-1.27 2.23-3.11 1.25-1.84 2.21-3.82.95-1.99.95-3.7 0-2.7-1.44-4.17-1.45-1.47-4.34-1.47-2.01 0-3.38.88-1.37.89-2.23 2.06-.86 1.18-1.35 2.11l-4.55-2.45q.93-1.76 2.42-3.55 1.5-1.79 3.75-3.02 2.25-1.22 5.49-1.22 3.72 0 6.22 1.32 2.5 1.32 3.75 3.63 1.25 2.3 1.25 5.24 0 3.14-1.55 6.42-1.54 3.28-4.33 6.71l-6.67 8.43h13.97v4.85Z"></path><rect width="24.5" height="36.6" x="-12.25" y="-18.3" fill="none" rx="0" ry="0" transform="translate(459.99 239)"></rect><path fill="#009b7d" d="M490.07 257.532q-3.58 0-6.08-1.47t-4.07-4.05q-1.57-2.57-2.28-5.97-.71-3.41-.71-7.23 0-3.97.69-7.35.69-3.38 2.2-5.91 1.52-2.52 4.05-3.94 2.52-1.42 6.2-1.42 4.9 0 7.74 2.4t4.09 6.59q1.25 4.19 1.25 9.63 0 5.24-1.3 9.5-1.3 4.27-4.17 6.74-2.86 2.48-7.61 2.48m0-5q2.2 0 3.6-1.18 1.39-1.17 2.15-3.18.76-2.01 1.06-4.44.29-2.42.29-4.92 0-2.75-.29-5.2-.3-2.45-1.06-4.36-.76-1.91-2.15-3.01-1.4-1.1-3.6-1.1-2.21 0-3.63 1.1t-2.18 3.01q-.76 1.91-1.05 4.36-.3 2.45-.3 5.2 0 2.5.3 4.92.29 2.43 1.05 4.41.76 1.99 2.18 3.19 1.42 1.2 3.63 1.2"></path><rect width="26.22" height="37.34" x="-13.11" y="-18.67" fill="none" rx="0" ry="0" transform="translate(490.54 239.36)"></rect><path fill="#009b7d" d="m507.51 256.792 12.1-15.14q.98-1.27 2.23-3.11 1.25-1.84 2.21-3.82.95-1.99.95-3.7 0-2.7-1.44-4.17-1.45-1.47-4.34-1.47-2.01 0-3.38.88-1.37.89-2.23 2.06-.86 1.18-1.35 2.11l-4.55-2.45q.93-1.76 2.42-3.55 1.5-1.79 3.75-3.02 2.25-1.22 5.49-1.22 3.72 0 6.22 1.32 2.5 1.32 3.75 3.63 1.25 2.3 1.25 5.24 0 3.14-1.55 6.42-1.54 3.28-4.33 6.71l-6.67 8.43h13.97v4.85Z"></path><rect width="24.5" height="36.6" x="-12.25" y="-18.3" fill="none" rx="0" ry="0" transform="translate(520.26 239)"></rect><path fill="#009b7d" d="M548.28 257.532q-3.24 0-5.96-.84-2.72-.83-4.58-2.45l2.5-4.6q.44.34 1.54 1 1.11.66 2.75 1.2 1.64.54 3.6.54 3.28 0 5.44-1.86 2.16-1.86 2.16-5.15 0-1.81-.76-3.4-.76-1.59-2.55-2.6-1.79-1-4.88-1-1.47 0-3.06.17t-2.92.46q-1.32.3-2 .69l.73-18.91h18.47v4.8h-13.13l-.49 8.52q.69-.19 1.69-.29 1.01-.1 2.43-.1 5.68 0 8.94 2.97 3.26 2.96 3.26 8.16 0 3.72-1.55 6.59-1.54 2.86-4.48 4.48-2.94 1.62-7.15 1.62"></path><rect width="23.72" height="36.75" x="-11.86" y="-18.38" fill="none" rx="0" ry="0" transform="translate(550.1 239.66)"></rect></svg></svg>